<svg width="16" height="16" viewBox="0 0 16 16" fill="none" xmlns="http://www.w3.org/2000/svg">
<path fill-rule="evenodd" clip-rule="evenodd" d="M2.29983 1.33332C2.29859 1.33333 2.29736 1.33333 2.29612 1.33333C2.04078 1.33333 1.7959 1.43477 1.61535 1.61532C1.4348 1.79587 1.33336 2.04075 1.33336 2.29609V13.702C1.33336 13.9574 1.4348 14.2022 1.61535 14.3828C1.7959 14.5633 2.04078 14.6648 2.29612 14.6648H13.7021C13.9574 14.6648 14.2023 14.5633 14.3828 14.3828C14.5634 14.2022 14.6648 13.9574 14.6648 13.702C14.6648 13.6906 14.6651 13.6793 14.6657 13.6681V2.29608C14.6657 2.04756 14.5909 1.8225 14.3837 1.61531C14.2282 1.4598 14.1553 1.41143 14.0976 1.38593C14.0431 1.36185 13.9447 1.33332 13.7029 1.33332H2.29983ZM15.8385 14.5433C15.7241 14.8337 15.5506 15.1006 15.3256 15.3256C14.895 15.7562 14.311 15.9981 13.7021 15.9981H2.29612C1.68716 15.9981 1.10314 15.7562 0.672539 15.3256C0.241939 14.895 3.05176e-05 14.311 3.05176e-05 13.702V2.29609C3.05176e-05 1.68713 0.241939 1.10311 0.672539 0.672508C0.898436 0.446611 1.16656 0.272644 1.45835 0.158292C1.57461 0.0595555 1.72518 -1.01924e-05 1.88966 -1.01924e-05H13.7029C14.0404 -1.01924e-05 14.3458 0.0378976 14.6365 0.16635C14.924 0.293381 15.1376 0.483631 15.3265 0.672501C15.808 1.15406 15.999 1.72988 15.999 2.29608V14.1094C15.999 14.2751 15.9385 14.4266 15.8385 14.5433Z" fill="#2D3440"/>
</svg>
