<?xml version="1.0" encoding="UTF-8"?>
<svg xmlns="http://www.w3.org/2000/svg" width="32px" height="32px" viewBox="0 0 32 32" version="1.1">
<g id="surface1">
<path style=" stroke:none;fill-rule:nonzero;fill:rgb(0%,0%,0%);fill-opacity:1;" d="M 16 13.6875 C 13.328125 13.6875 11.152344 15.863281 11.152344 18.535156 C 11.152344 21.207031 13.328125 23.382812 16 23.382812 C 18.671875 23.382812 20.847656 21.207031 20.847656 18.535156 C 20.847656 15.863281 18.671875 13.6875 16 13.6875 Z M 16 22.433594 C 13.851562 22.433594 12.101562 20.683594 12.101562 18.535156 C 12.101562 16.386719 13.851562 14.636719 16 14.636719 C 18.148438 14.636719 19.898438 16.386719 19.898438 18.535156 C 19.898438 20.683594 18.148438 22.433594 16 22.433594 Z M 16 22.433594 "/>
<path style=" stroke:none;fill-rule:nonzero;fill:rgb(0%,0%,0%);fill-opacity:1;" d="M 27.855469 6.019531 L 27.855469 2.535156 L 25.96875 2.535156 L 25.96875 0 L 6.03125 0 L 6.03125 2.535156 L 4.144531 2.535156 L 4.144531 6.019531 L 6.054688 6.019531 L 6.316406 11.09375 L 5.683594 11.09375 L 6.453125 25.976562 L 7.089844 25.976562 L 7.402344 32 L 24.597656 32 L 24.910156 25.976562 L 25.546875 25.976562 L 26.316406 11.09375 L 25.683594 11.09375 L 25.945312 6.019531 Z M 24.644531 25.027344 L 11.183594 25.027344 L 11.183594 25.976562 L 23.960938 25.976562 L 23.695312 31.050781 L 8.304688 31.050781 L 8.039062 25.976562 L 9.917969 25.976562 L 9.917969 25.027344 L 7.355469 25.027344 L 6.683594 12.042969 L 25.316406 12.042969 Z M 7.003906 6.019531 L 24.996094 6.019531 L 24.730469 11.09375 L 7.269531 11.09375 Z M 6.003906 5.070312 L 5.09375 5.070312 L 5.09375 3.484375 L 9.917969 3.484375 L 9.917969 2.535156 L 6.980469 2.535156 L 6.980469 0.949219 L 25.019531 0.949219 L 25.019531 2.535156 L 11.183594 2.535156 L 11.183594 3.484375 L 26.90625 3.484375 L 26.90625 5.070312 Z M 6.003906 5.070312 "/>
</g>
</svg>
