<?xml version="1.0" encoding="UTF-8"?>
<svg xmlns="http://www.w3.org/2000/svg" width="32px" height="32px" viewBox="0 0 32 32" version="1.1">
<g id="surface1">
<path style=" stroke:none;fill-rule:nonzero;fill:rgb(0%,0%,0%);fill-opacity:1;" d="M 11.332031 18.128906 C 9.816406 18.128906 8.582031 19.363281 8.582031 20.882812 C 8.582031 22.398438 9.816406 23.632812 11.332031 23.632812 C 12.851562 23.632812 14.085938 22.398438 14.085938 20.882812 C 14.085938 19.363281 12.851562 18.128906 11.332031 18.128906 Z M 11.332031 21.992188 C 10.722656 21.992188 10.222656 21.492188 10.222656 20.882812 C 10.222656 20.269531 10.722656 19.769531 11.332031 19.769531 C 11.945312 19.769531 12.445312 20.269531 12.445312 20.882812 C 12.445312 21.492188 11.945312 21.992188 11.332031 21.992188 Z M 11.332031 21.992188 "/>
<path style=" stroke:none;fill-rule:nonzero;fill:rgb(0%,0%,0%);fill-opacity:1;" d="M 26.734375 18.128906 C 25.214844 18.128906 23.980469 19.363281 23.980469 20.882812 C 23.980469 22.398438 25.214844 23.632812 26.734375 23.632812 C 28.25 23.632812 29.484375 22.398438 29.484375 20.882812 C 29.484375 19.363281 28.25 18.128906 26.734375 18.128906 Z M 26.734375 21.992188 C 26.121094 21.992188 25.621094 21.492188 25.621094 20.882812 C 25.621094 20.269531 26.121094 19.769531 26.734375 19.769531 C 27.34375 19.769531 27.84375 20.269531 27.84375 20.882812 C 27.84375 21.492188 27.34375 21.992188 26.734375 21.992188 Z M 26.734375 21.992188 "/>
<path style=" stroke:none;fill-rule:nonzero;fill:rgb(0%,0%,0%);fill-opacity:1;" d="M 20.265625 8.367188 L 8.664062 8.367188 C 7.082031 8.367188 5.792969 9.65625 5.792969 11.238281 L 5.792969 20.773438 C 5.792969 21.226562 6.160156 21.59375 6.613281 21.59375 C 7.066406 21.59375 7.433594 21.226562 7.433594 20.773438 L 7.433594 11.238281 C 7.433594 10.5625 7.984375 10.007812 8.664062 10.007812 L 20.265625 10.007812 C 20.945312 10.007812 21.496094 10.5625 21.496094 11.238281 L 21.496094 18.722656 C 21.496094 19.402344 20.945312 19.953125 20.265625 19.953125 L 15.488281 19.953125 C 15.035156 19.953125 14.667969 20.320312 14.667969 20.773438 C 14.667969 21.226562 15.035156 21.59375 15.488281 21.59375 L 20.265625 21.59375 C 21.847656 21.59375 23.136719 20.304688 23.136719 18.722656 L 23.136719 11.238281 C 23.136719 9.65625 21.847656 8.367188 20.265625 8.367188 Z M 20.265625 8.367188 "/>
<path style=" stroke:none;fill-rule:nonzero;fill:rgb(0%,0%,0%);fill-opacity:1;" d="M 31.917969 16.765625 L 29.988281 12.796875 C 29.847656 12.515625 29.5625 12.335938 29.25 12.335938 L 24.851562 12.335938 C 24.398438 12.335938 24.03125 12.703125 24.03125 13.15625 C 24.03125 13.609375 24.398438 13.976562 24.851562 13.976562 L 28.734375 13.976562 L 30.359375 17.316406 L 30.359375 20.773438 C 30.359375 21.226562 30.726562 21.59375 31.179688 21.59375 C 31.632812 21.59375 32 21.226562 32 20.773438 L 32 17.125 C 32 17 31.972656 16.878906 31.917969 16.765625 Z M 31.917969 16.765625 "/>
<path style=" stroke:none;fill-rule:nonzero;fill:rgb(0%,0%,0%);fill-opacity:1;" d="M 3.828125 16.417969 L 0.410156 16.417969 C 0.183594 16.417969 0 16.601562 0 16.828125 C 0 17.054688 0.183594 17.238281 0.410156 17.238281 L 3.828125 17.238281 C 4.054688 17.238281 4.238281 17.054688 4.238281 16.828125 C 4.238281 16.601562 4.054688 16.417969 3.828125 16.417969 Z M 3.828125 16.417969 "/>
<path style=" stroke:none;fill-rule:nonzero;fill:rgb(0%,0%,0%);fill-opacity:1;" d="M 3.828125 18.511719 L 1.984375 18.511719 C 1.757812 18.511719 1.574219 18.695312 1.574219 18.921875 C 1.574219 19.148438 1.757812 19.332031 1.984375 19.332031 L 3.828125 19.332031 C 4.054688 19.332031 4.238281 19.148438 4.238281 18.921875 C 4.238281 18.695312 4.054688 18.511719 3.828125 18.511719 Z M 3.828125 18.511719 "/>
<path style=" stroke:none;fill-rule:nonzero;fill:rgb(0%,0%,0%);fill-opacity:1;" d="M 19.386719 17.375 C 19.613281 17.375 19.796875 17.191406 19.796875 16.964844 L 19.796875 13.171875 C 19.796875 11.945312 19.140625 11.324219 17.847656 11.324219 L 13.335938 11.324219 C 13.109375 11.324219 12.925781 11.507812 12.925781 11.734375 C 12.925781 11.960938 13.109375 12.144531 13.335938 12.144531 L 17.847656 12.144531 C 18.789062 12.144531 18.976562 12.519531 18.976562 13.171875 L 18.976562 16.964844 C 18.976562 17.191406 19.160156 17.375 19.386719 17.375 Z M 19.386719 17.375 "/>
</g>
</svg>
