<?xml version="1.0" encoding="UTF-8"?>
<svg xmlns="http://www.w3.org/2000/svg" width="32px" height="32px" viewBox="0 0 32 32" version="1.1">
<g id="surface1">
<path style=" stroke:none;fill-rule:nonzero;fill:rgb(0%,0%,0%);fill-opacity:1;" d="M 22.632812 17.179688 C 21.570312 16.132812 20.980469 14.761719 20.980469 13.324219 C 20.980469 10.84375 19.152344 8.726562 16.792969 8.332031 L 16.792969 8.234375 C 16.792969 6.761719 17.972656 5.566406 19.425781 5.566406 C 19.71875 5.566406 19.957031 5.328125 19.957031 5.035156 C 19.957031 4.742188 19.71875 4.507812 19.425781 4.507812 C 18.429688 4.507812 17.5 4.894531 16.804688 5.601562 C 16.792969 5.613281 16.78125 5.625 16.769531 5.640625 C 16.09375 2.421875 13.238281 0 9.824219 0 C 9.53125 0 9.292969 0.238281 9.292969 0.53125 C 9.292969 4.238281 12.15625 7.292969 15.789062 7.601562 C 15.753906 7.808594 15.734375 8.019531 15.734375 8.234375 L 15.734375 8.273438 C 14.53125 8.335938 13.40625 8.820312 12.53125 9.667969 C 11.554688 10.613281 11.015625 11.871094 11.015625 13.21875 L 11.015625 13.246094 C 11.015625 14.734375 10.421875 16.117188 9.34375 17.144531 C 7.464844 18.929688 6.429688 21.378906 6.429688 24.039062 C 6.429688 26.558594 7.417969 28.636719 9.285156 30.046875 C 10.972656 31.324219 13.292969 32 15.988281 32 C 18.683594 32 21.007812 31.324219 22.703125 30.046875 C 24.578125 28.636719 25.570312 26.558594 25.570312 24.039062 C 25.570312 21.511719 24.5 19.011719 22.632812 17.179688 Z M 10.378906 1.085938 C 13.265625 1.347656 15.570312 3.652344 15.835938 6.542969 C 12.949219 6.277344 10.640625 3.972656 10.378906 1.085938 Z M 15.988281 30.941406 C 11.878906 30.941406 7.488281 29.128906 7.488281 24.039062 C 7.488281 21.671875 8.40625 19.496094 10.074219 17.910156 C 11.363281 16.683594 12.074219 15.027344 12.074219 13.242188 L 12.074219 13.21875 C 12.074219 12.160156 12.5 11.171875 13.265625 10.429688 C 14.007812 9.714844 14.972656 9.324219 15.996094 9.324219 C 16.046875 9.324219 16.09375 9.328125 16.140625 9.328125 C 18.226562 9.402344 19.921875 11.195312 19.921875 13.324219 C 19.921875 15.046875 20.621094 16.6875 21.890625 17.933594 C 23.558594 19.566406 24.511719 21.792969 24.511719 24.039062 C 24.511719 29.128906 20.109375 30.941406 15.988281 30.941406 Z M 15.988281 30.941406 "/>
</g>
</svg>
