<?xml version="1.0" encoding="UTF-8"?>
<svg xmlns="http://www.w3.org/2000/svg"  width="32px" height="32px" viewBox="0 0 32 32" version="1.1">
<g id="surface1">
<path style=" stroke:none;fill-rule:nonzero;fill:rgb(0%,0%,0%);fill-opacity:1;" d="M 26.058594 17.785156 C 26.058594 12.597656 24.359375 1.035156 24.285156 0.542969 C 24.257812 0.355469 24.144531 0.1875 23.980469 0.0898438 C 23.816406 -0.0078125 23.613281 -0.0273438 23.433594 0.0390625 C 23.257812 0.105469 19.042969 1.6875 14.757812 4.632812 C 12.222656 6.378906 10.199219 8.238281 8.742188 10.164062 C 6.882812 12.613281 5.941406 15.179688 5.941406 17.785156 C 5.941406 22.660156 9.429688 26.734375 14.039062 27.648438 C 14.261719 29.070312 14.570312 30.382812 14.957031 31.5625 C 15.046875 31.828125 15.296875 32 15.5625 32 C 15.628906 32 15.699219 31.988281 15.765625 31.96875 C 16.097656 31.859375 16.28125 31.496094 16.167969 31.164062 C 15.835938 30.152344 15.566406 29.03125 15.359375 27.820312 C 15.570312 27.835938 15.785156 27.84375 16 27.84375 C 21.546875 27.84375 26.058594 23.332031 26.058594 17.785156 Z M 7.21875 17.785156 C 7.21875 12.488281 11.699219 8.289062 15.460938 5.699219 C 17.925781 4 20.414062 2.75 22.039062 2.011719 C 20.691406 3.960938 18.046875 8.027344 16.46875 12.097656 C 16.34375 12.425781 16.503906 12.792969 16.832031 12.921875 C 16.910156 12.949219 16.988281 12.964844 17.0625 12.964844 C 17.320312 12.964844 17.558594 12.808594 17.65625 12.558594 C 19.242188 8.46875 22.03125 4.257812 23.273438 2.476562 C 23.757812 5.984375 24.78125 13.871094 24.78125 17.785156 C 24.78125 22.628906 20.84375 26.566406 16 26.566406 C 11.15625 26.566406 7.21875 22.628906 7.21875 17.785156 Z M 7.21875 17.785156 "/>
<path style=" stroke:none;fill-rule:nonzero;fill:rgb(0%,0%,0%);fill-opacity:1;" d="M 16.175781 15.082031 C 15.828125 15.015625 15.496094 15.242188 15.429688 15.589844 C 15.296875 16.277344 15.226562 16.933594 15.21875 17.535156 C 15.210938 17.886719 15.492188 18.175781 15.84375 18.179688 C 15.847656 18.179688 15.851562 18.179688 15.855469 18.179688 C 16.203125 18.179688 16.488281 17.902344 16.492188 17.554688 C 16.5 17.027344 16.5625 16.445312 16.683594 15.828125 C 16.746094 15.480469 16.519531 15.148438 16.175781 15.082031 Z M 16.175781 15.082031 "/>
</g>
</svg>
