<svg width="14" height="14" viewBox="0 0 14 14" fill="none" xmlns="http://www.w3.org/2000/svg">
<path fill-rule="evenodd" clip-rule="evenodd" d="M7.00032 2.12508C4.3078 2.12508 2.12508 4.3078 2.12508 7.00032C2.12508 9.69284 4.3078 11.8756 7.00032 11.8756C9.69284 11.8756 11.8756 9.69284 11.8756 7.00032C11.8756 4.3078 9.69284 2.12508 7.00032 2.12508ZM0.791748 7.00032C0.791748 3.57142 3.57142 0.791748 7.00032 0.791748C10.4292 0.791748 13.2089 3.57142 13.2089 7.00032C13.2089 10.4292 10.4292 13.2089 7.00032 13.2089C3.57142 13.2089 0.791748 10.4292 0.791748 7.00032ZM7.00013 6.3334C7.36832 6.3334 7.6668 6.63188 7.6668 7.00007V9.21683C7.6668 9.58502 7.36832 9.8835 7.00013 9.8835C6.63194 9.8835 6.33347 9.58502 6.33347 9.21683V7.00007C6.33347 6.63188 6.63194 6.3334 7.00013 6.3334ZM7.00013 4.11665C6.63194 4.11665 6.33347 4.41513 6.33347 4.78332C6.33347 5.1515 6.63194 5.44998 7.00013 5.44998H7.00597C7.37416 5.44998 7.67263 5.1515 7.67263 4.78332C7.67263 4.41513 7.37416 4.11665 7.00597 4.11665H7.00013Z" fill="#2D3440"/>
</svg>
